<svg xmlns="http://www.w3.org/2000/svg" viewBox="0 0 64 64">
  <rect width="64" height="64" rx="12" fill="#181717"/>
  <path d="M32 16c-9 0-16 7-16 16 0 7 4 13 10 15-.2-1-.2-2 0-3 .2-1 .8-3 .8-3s-.7-1.5-.7-3c0-2 1.2-4 2.7-5-2.2-.2-4.5-1.1-4.5-5 0-1.1.4-2.1 1.1-2.9-.1-.2-.5-1.3.1-2.7 0 0 1.9-.6 3.1 1.1a10.6 10.6 0 0 1 5.7 0c1.2-1.7 3.1-1.1 3.1-1.1.6 1.4.2 2.5.1 2.7.7.8 1.1 1.8 1.1 2.9 0 4-2.3 4.8-4.5 5 1.4 1 2.7 3 2.7 5 0 1.5-.7 3-.7 3s.6 2 .8 3c.2 1 .2 2 0 3 6-2 10-8 10-15 0-9-7-16-16-16z" fill="#ffffff"/>
</svg>
